<svg width="448" height="127" viewBox="0 0 448 127" fill="none" xmlns="http://www.w3.org/2000/svg">
<path d="M0 96.0638C27.7773 96.0638 47.869 55.9692 81.4103 55.9692C111.365 55.9692 132.798 112.903 163.525 112.903C198.41 112.903 213.934 42.9844 243.041 42.9844C272.147 42.9844 294.331 112.903 324.054 112.903C361.788 112.903 374.009 3.00001 406.038 3C435.029 2.99999 420.349 67.6348 448 67.6348" stroke="#6160D0" stroke-width="6"/>
<path d="M81.4103 55.9692C47.869 55.9692 27.7773 96.0638 0 96.0638V127H448V67.6349C420.349 67.6349 435.029 2.99999 406.038 3C374.009 3.00001 361.788 112.903 324.054 112.903C294.331 112.903 272.147 42.9844 243.041 42.9844C213.934 42.9844 198.41 112.903 163.525 112.903C132.798 112.903 111.365 55.9692 81.4103 55.9692Z" fill="url(#paint0_linear_284_1387)"/>
<defs>
<linearGradient id="paint0_linear_284_1387" x1="224" y1="-298.148" x2="224" y2="127" gradientUnits="userSpaceOnUse">
<stop stop-color="#6160DC"/>
<stop offset="1" stop-color="#6160DC" stop-opacity="0"/>
</linearGradient>
</defs>
</svg>
