<svg width="446" height="130" viewBox="0 0 446 130" fill="none" xmlns="http://www.w3.org/2000/svg">
<path d="M0 118.9C27.6156 118.9 49.7705 2.99997 80.6082 2.99997C111.446 2.99997 128.556 127 163.147 127C197.739 127 212.817 51.238 241.825 51.238C270.833 51.238 290.911 84.7208 321.709 84.7208C352.507 84.7208 374.383 16.0526 403.765 16.0526C433.148 16.0526 416.798 40.1811 446 40.1811V127H163.147H0V118.9Z" fill="url(#paint0_linear_284_1417)"/>
<path d="M0 118.9C27.6156 118.9 49.7705 2.99997 80.6082 2.99997C111.446 2.99997 128.556 127 163.147 127C197.739 127 212.817 51.238 241.825 51.238C270.833 51.238 290.911 84.7208 321.709 84.7208C352.507 84.7208 374.383 16.0526 403.765 16.0526C433.148 16.0526 416.798 40.1811 446 40.1811" stroke="#54C5EB" stroke-width="6"/>
<defs>
<linearGradient id="paint0_linear_284_1417" x1="223" y1="-261" x2="223" y2="127" gradientUnits="userSpaceOnUse">
<stop stop-color="#54C5EB"/>
<stop offset="1" stop-color="#54C5EB" stop-opacity="0"/>
</linearGradient>
</defs>
</svg>
