<svg width="53" height="49" viewBox="0 0 53 49" fill="none" xmlns="http://www.w3.org/2000/svg">
<rect x="0.891113" y="0.939301" width="51.9669" height="48" rx="24" fill="#00A389"/>
<g clip-path="url(#clip0_284_1498)">
<path d="M17.4358 22.1946L17.4726 31.7999C17.4726 31.9357 17.5093 32.0375 17.5093 32.1733C17.5093 32.2412 17.5461 32.2751 17.5461 32.343C17.5461 32.4109 17.5828 32.4448 17.6195 32.5466C17.6563 32.5806 17.6563 32.6485 17.7298 32.7163C17.7665 32.7503 17.7665 32.8182 17.8033 32.8521L18.0238 33.0558C18.0972 33.1236 18.2075 33.2255 18.3177 33.2594C18.3545 33.2933 18.428 33.2933 18.4647 33.3273C18.5015 33.3612 18.5749 33.3612 18.6117 33.3952C18.6484 33.4291 18.7219 33.4291 18.7954 33.4291C18.9057 33.5309 18.9792 33.5309 18.9792 33.5309C19.0894 33.5649 19.2364 33.5649 19.3834 33.5649L29.7825 33.5988C30.297 33.5988 30.7747 33.4291 31.1421 33.0897C31.5096 32.7503 31.6933 32.3091 31.6933 31.8339C31.6933 31.3587 31.5096 30.9175 31.1421 30.5781C30.7747 30.2386 30.297 30.0689 29.7825 30.0689L24.0501 30.0689L35.6987 19.3096C36.4336 18.6308 36.4336 17.4768 35.6987 16.798C34.9637 16.1191 33.7144 16.1191 32.9794 16.798L21.3309 27.5573L21.3309 22.2625C21.3309 21.7873 21.1472 21.3461 20.7797 21.0067C20.4123 20.6673 19.9346 20.4975 19.4201 20.4975C18.9057 20.4975 18.428 20.6672 18.0605 21.0067C17.693 21.2782 17.4358 21.7194 17.4358 22.1946Z" fill="white"/>
</g>
<defs>
<clipPath id="clip0_284_1498">
<rect width="25.0114" height="25.0114" fill="white" transform="matrix(-0.734588 -0.678513 0.734588 -0.678513 26.8428 41.8805)"/>
</clipPath>
</defs>
</svg>
