<svg width="248" height="102" viewBox="0 0 248 102" fill="none" xmlns="http://www.w3.org/2000/svg">
<path d="M117.656 26.6082C122.778 26.6082 127.253 27.5786 131.083 29.5193C134.912 31.4601 137.865 34.1948 139.942 37.7235C142.064 41.208 143.125 45.2439 143.125 49.8311C143.125 54.3743 142.064 58.4102 139.942 61.9388C137.865 65.4675 134.889 68.2022 131.014 70.1429C127.184 72.0837 122.731 73.0541 117.656 73.0541H99.4541V26.6082H117.656ZM116.895 63.2621C121.37 63.2621 124.854 62.0932 127.345 59.7555C129.837 57.4177 131.083 54.1096 131.083 49.8311C131.083 45.5526 129.837 42.2225 127.345 39.8406C124.854 37.4588 121.37 36.2679 116.895 36.2679H111.289V63.2621H116.895ZM179.983 64.8499H161.851L158.944 73.0541H146.555L164.135 26.6082H177.838L195.417 73.0541H182.89L179.983 64.8499ZM176.938 56.1165L170.917 39.1129L164.965 56.1165H176.938ZM235.719 26.6082V35.6724H222.846V73.0541H211.011V35.6724H198.138V26.6082H235.719Z" fill="#22242C"/>
<g filter="url(#filter0_i_287_2863)">
<path d="M102.078 81.6717C102.355 81.2416 102.753 80.8943 103.272 80.6296C103.791 80.365 104.385 80.2327 105.054 80.2327C105.85 80.2327 106.571 80.4256 107.217 80.8116C107.863 81.1975 108.37 81.7489 108.739 82.4656C109.12 83.1824 109.31 84.0149 109.31 84.9633C109.31 85.9116 109.12 86.7496 108.739 87.4774C108.37 88.1942 107.863 88.751 107.217 89.148C106.571 89.534 105.85 89.7269 105.054 89.7269C104.373 89.7269 103.779 89.6001 103.272 89.3465C102.764 89.0819 102.366 88.7345 102.078 88.3045V89.5946H99.1191V77.3546H102.078V81.6717ZM106.3 84.9633C106.3 84.2575 106.092 83.7062 105.677 83.3092C105.273 82.9012 104.771 82.6972 104.171 82.6972C103.583 82.6972 103.081 82.9012 102.666 83.3092C102.262 83.7172 102.061 84.2741 102.061 84.9798C102.061 85.6855 102.262 86.2424 102.666 86.6504C103.081 87.0584 103.583 87.2624 104.171 87.2624C104.76 87.2624 105.261 87.0584 105.677 86.6504C106.092 86.2314 106.3 85.669 106.3 84.9633ZM110.274 84.9633C110.274 84.0149 110.459 83.1824 110.828 82.4656C111.208 81.7489 111.722 81.1975 112.368 80.8116C113.014 80.4256 113.735 80.2327 114.53 80.2327C115.211 80.2327 115.805 80.365 116.313 80.6296C116.832 80.8943 117.23 81.2416 117.506 81.6717V80.365H120.465V89.5946H117.506V88.2879C117.218 88.718 116.814 89.0653 116.295 89.33C115.788 89.5946 115.194 89.7269 114.513 89.7269C113.729 89.7269 113.014 89.534 112.368 89.148C111.722 88.751 111.208 88.1942 110.828 87.4774C110.459 86.7496 110.274 85.9116 110.274 84.9633ZM117.506 84.9798C117.506 84.2741 117.299 83.7172 116.884 83.3092C116.48 82.9012 115.984 82.6972 115.396 82.6972C114.807 82.6972 114.306 82.9012 113.89 83.3092C113.487 83.7062 113.285 84.2575 113.285 84.9633C113.285 85.669 113.487 86.2314 113.89 86.6504C114.306 87.0584 114.807 87.2624 115.396 87.2624C115.984 87.2624 116.48 87.0584 116.884 86.6504C117.299 86.2424 117.506 85.6855 117.506 84.9798ZM128.489 80.2657C129.619 80.2657 130.519 80.6186 131.188 81.3243C131.868 82.019 132.209 82.9784 132.209 84.2024V89.5946H129.267V84.5828C129.267 83.9653 129.1 83.4856 128.765 83.1438C128.431 82.802 127.981 82.631 127.416 82.631C126.851 82.631 126.401 82.802 126.066 83.1438C125.732 83.4856 125.564 83.9653 125.564 84.5828V89.5946H122.606V80.365H125.564V81.589C125.864 81.181 126.268 80.8612 126.776 80.6296C127.283 80.387 127.854 80.2657 128.489 80.2657ZM140.165 89.5946L137.223 85.7241V89.5946H134.264V77.3546H137.223V84.1197L140.147 80.365H143.798L139.784 84.9963L143.833 89.5946H140.165Z" fill="black"/>
</g>
<g filter="url(#filter1_i_287_2863)">
<path d="M71.7132 73.9971C71.7132 77.8432 68.4513 80.9615 64.4279 80.9615H13.4317C9.40842 80.9615 6.14648 77.8432 6.14648 73.9971V25.2461C6.14648 21.3999 9.40842 18.2816 13.4317 18.2816H64.4279C68.4513 18.2816 71.7132 21.3999 71.7132 25.2461V73.9971Z" fill="#6160DC"/>
<g filter="url(#filter2_i_287_2863)">
<path d="M37.0558 34.0845C40.8969 34.0845 44.2536 34.8123 47.1258 36.2679C49.998 37.7235 52.2127 39.7745 53.7699 42.421C55.3617 45.0344 56.1576 48.0613 56.1576 51.5017C56.1576 54.9091 55.3617 57.936 53.7699 60.5825C52.2127 63.229 49.9807 65.28 47.0739 66.7356C44.2017 68.1911 40.8623 68.9189 37.0558 68.9189H23.4043V34.0845H37.0558ZM36.4849 61.5749C39.8415 61.5749 42.4542 60.6983 44.3228 58.945C46.1915 57.1917 47.1258 54.7106 47.1258 51.5017C47.1258 48.2929 46.1915 45.7952 44.3228 44.0089C42.4542 42.2225 39.8415 41.3293 36.4849 41.3293H32.2804V61.5749H36.4849Z" fill="white"/>
</g>
</g>
<defs>
<filter id="filter0_i_287_2863" x="99.1191" y="77.3546" width="44.7139" height="16.3723" filterUnits="userSpaceOnUse" color-interpolation-filters="sRGB">
<feFlood flood-opacity="0" result="BackgroundImageFix"/>
<feBlend mode="normal" in="SourceGraphic" in2="BackgroundImageFix" result="shape"/>
<feColorMatrix in="SourceAlpha" type="matrix" values="0 0 0 0 0 0 0 0 0 0 0 0 0 0 0 0 0 0 127 0" result="hardAlpha"/>
<feOffset dy="4"/>
<feGaussianBlur stdDeviation="2"/>
<feComposite in2="hardAlpha" operator="arithmetic" k2="-1" k3="1"/>
<feColorMatrix type="matrix" values="0 0 0 0 0 0 0 0 0 0 0 0 0 0 0 0 0 0 0.25 0"/>
<feBlend mode="normal" in2="shape" result="effect1_innerShadow_287_2863"/>
</filter>
<filter id="filter1_i_287_2863" x="6.14648" y="18.2816" width="65.5664" height="66.68" filterUnits="userSpaceOnUse" color-interpolation-filters="sRGB">
<feFlood flood-opacity="0" result="BackgroundImageFix"/>
<feBlend mode="normal" in="SourceGraphic" in2="BackgroundImageFix" result="shape"/>
<feColorMatrix in="SourceAlpha" type="matrix" values="0 0 0 0 0 0 0 0 0 0 0 0 0 0 0 0 0 0 127 0" result="hardAlpha"/>
<feOffset dy="4"/>
<feGaussianBlur stdDeviation="2"/>
<feComposite in2="hardAlpha" operator="arithmetic" k2="-1" k3="1"/>
<feColorMatrix type="matrix" values="0 0 0 0 0 0 0 0 0 0 0 0 0 0 0 0 0 0 0.25 0"/>
<feBlend mode="normal" in2="shape" result="effect1_innerShadow_287_2863"/>
</filter>
<filter id="filter2_i_287_2863" x="23.4043" y="34.0845" width="32.7529" height="38.8344" filterUnits="userSpaceOnUse" color-interpolation-filters="sRGB">
<feFlood flood-opacity="0" result="BackgroundImageFix"/>
<feBlend mode="normal" in="SourceGraphic" in2="BackgroundImageFix" result="shape"/>
<feColorMatrix in="SourceAlpha" type="matrix" values="0 0 0 0 0 0 0 0 0 0 0 0 0 0 0 0 0 0 127 0" result="hardAlpha"/>
<feOffset dy="4"/>
<feGaussianBlur stdDeviation="2"/>
<feComposite in2="hardAlpha" operator="arithmetic" k2="-1" k3="1"/>
<feColorMatrix type="matrix" values="0 0 0 0 0 0 0 0 0 0 0 0 0 0 0 0 0 0 0.25 0"/>
<feBlend mode="normal" in2="shape" result="effect1_innerShadow_287_2863"/>
</filter>
</defs>
</svg>
