<svg width="53" height="49" viewBox="0 0 53 49" fill="none" xmlns="http://www.w3.org/2000/svg">
<rect x="0.891113" y="0.939301" width="51.9669" height="48" rx="24" fill="#FF4A55"/>
<g clip-path="url(#clip0_377_810)">
<path d="M36.2497 27.6252L36.213 18.0198C36.213 17.8841 36.1762 17.7822 36.1762 17.6465C36.1762 17.5786 36.1395 17.5446 36.1395 17.4768C36.1395 17.4089 36.1027 17.3749 36.066 17.2731C36.0293 17.2392 36.0293 17.1713 35.9558 17.1034C35.919 17.0695 35.919 17.0016 35.8823 16.9676L35.6618 16.764C35.5883 16.6961 35.4781 16.5943 35.3678 16.5604C35.3311 16.5264 35.2576 16.5264 35.2208 16.4925C35.1841 16.4585 35.1106 16.4585 35.0739 16.4246C35.0371 16.3906 34.9636 16.3906 34.8901 16.3906C34.7799 16.2888 34.7064 16.2888 34.7064 16.2888C34.5962 16.2549 34.4492 16.2549 34.3022 16.2549L23.903 16.2209C23.3886 16.2209 22.9109 16.3906 22.5434 16.7301C22.1759 17.0695 21.9922 17.5107 21.9922 17.9859C21.9922 18.4611 22.1759 18.9023 22.5434 19.2417C22.9109 19.5811 23.3886 19.7508 23.903 19.7508L29.6354 19.7508L17.9869 30.5102C17.252 31.189 17.252 32.343 17.9869 33.0218C18.7218 33.7006 19.9712 33.7006 20.7061 33.0218L32.3546 22.2625L32.3546 27.5573C32.3546 28.0325 32.5384 28.4737 32.9058 28.8131C33.2733 29.1525 33.751 29.3222 34.2654 29.3222C34.7799 29.3222 35.2576 29.1525 35.625 28.8131C35.9925 28.5416 36.2497 28.1003 36.2497 27.6252Z" fill="white"/>
</g>
<defs>
<clipPath id="clip0_377_810">
<rect width="25.0114" height="25.0114" fill="white" transform="matrix(0.734588 0.678513 -0.734588 0.678513 26.8428 7.9393)"/>
</clipPath>
</defs>
</svg>
