<svg width="50" height="50" viewBox="0 0 50 50" fill="none" xmlns="http://www.w3.org/2000/svg">
<path fill-rule="evenodd" clip-rule="evenodd" d="M0 41.25C0 40.5596 0.559644 40 1.25 40H48.75C49.4404 40 50 40.5596 50 41.25V48.75C50 49.4404 49.4404 50 48.75 50H1.25C0.559644 50 0 49.4404 0 48.75V41.25ZM2.5 42.5V47.5H47.5V42.5H2.5Z" fill="#6160DC"/>
<path fill-rule="evenodd" clip-rule="evenodd" d="M24.4178 0.143852C24.7822 -0.0479507 25.2178 -0.0479507 25.5822 0.143852L49.3322 12.6439C49.7429 12.86 50 13.2859 50 13.75V18.75C50 19.4404 49.4404 20 48.75 20H1.25C0.559644 20 0 19.4404 0 18.75V13.75C0 13.2859 0.257127 12.86 0.667817 12.6439L24.4178 0.143852ZM2.5 14.5047V17.5H47.5V14.5047L25 2.66256L2.5 14.5047Z" fill="#6160DC"/>
<path fill-rule="evenodd" clip-rule="evenodd" d="M18.75 17.5C19.4404 17.5 20 18.0596 20 18.75L20 41.25C20 41.9404 19.4404 42.5 18.75 42.5H6.25C5.55964 42.5 5 41.9404 5 41.25L5 18.75C5 18.0596 5.55964 17.5 6.25 17.5L18.75 17.5ZM17.5 20L7.5 20L7.5 40H17.5L17.5 20Z" fill="#6160DC"/>
<path fill-rule="evenodd" clip-rule="evenodd" d="M43.75 17.5C44.4404 17.5 45 18.0596 45 18.75L45 41.25C45 41.9404 44.4404 42.5 43.75 42.5H31.25C30.5596 42.5 30 41.9404 30 41.25L30 18.75C30 18.0596 30.5596 17.5 31.25 17.5L43.75 17.5ZM42.5 20L32.5 20V40H42.5L42.5 20Z" fill="#6160DC"/>
<path fill-rule="evenodd" clip-rule="evenodd" d="M25 8.75C23.6193 8.75 22.5 9.86929 22.5 11.25C22.5 12.6307 23.6193 13.75 25 13.75C26.3807 13.75 27.5 12.6307 27.5 11.25C27.5 9.86929 26.3807 8.75 25 8.75ZM20 11.25C20 8.48858 22.2386 6.25 25 6.25C27.7614 6.25 30 8.48858 30 11.25C30 14.0114 27.7614 16.25 25 16.25C22.2386 16.25 20 14.0114 20 11.25Z" fill="#6160DC"/>
</svg>
