<svg width="43" height="39" viewBox="0 0 43 39" fill="none" xmlns="http://www.w3.org/2000/svg">
<g clip-path="url(#clip0_312_831)">
<path d="M-0.0458984 14H42.9541" stroke="#6160DC" stroke-width="2"/>
<path d="M6.9541 20C6.40182 20 5.9541 20.4477 5.9541 21C5.9541 21.5523 6.40182 22 6.9541 22V20ZM13.9541 22C14.5064 22 14.9541 21.5523 14.9541 21C14.9541 20.4477 14.5064 20 13.9541 20V22ZM6.9541 22H13.9541V20H6.9541V22Z" fill="#6160DC"/>
</g>
<mask id="path-3-inside-1_312_831" fill="white">
<path d="M6.45 1.95001H36.55C38.2606 1.95001 39.9012 2.60744 41.1108 3.77767C42.3204 4.94789 43 6.53506 43 8.19001V26.91C43 28.565 42.3204 30.1521 41.1108 31.3224C39.9012 32.4926 38.2606 33.15 36.55 33.15H6.45C4.73935 33.15 3.09877 32.4926 1.88916 31.3224C0.679552 30.1521 0 28.565 0 26.91V8.19001C0 6.53506 0.679552 4.94789 1.88916 3.77767C3.09877 2.60744 4.73935 1.95001 6.45 1.95001Z"/>
</mask>
<path d="M1.88916 31.3224L3.27978 29.8849L3.27978 29.8849L1.88916 31.3224ZM1.88916 3.77767L3.27978 5.21509L3.27978 5.21509L1.88916 3.77767ZM6.45 3.95001H36.55V-0.0499878H6.45V3.95001ZM36.55 3.95001C37.7512 3.95001 38.8904 4.41227 39.7202 5.21509L42.5015 2.34025C40.9121 0.802613 38.7701 -0.0499878 36.55 -0.0499878V3.95001ZM39.7202 5.21509C40.5478 6.01573 41 7.08726 41 8.19001H45C45 5.98287 44.0931 3.88006 42.5015 2.34025L39.7202 5.21509ZM41 8.19001V26.91H45V8.19001H41ZM41 26.91C41 28.0128 40.5478 29.0843 39.7202 29.8849L42.5015 32.7598C44.0931 31.22 45 29.1172 45 26.91H41ZM39.7202 29.8849C38.8904 30.6878 37.7512 31.15 36.55 31.15V35.15C38.7701 35.15 40.9121 34.2974 42.5015 32.7598L39.7202 29.8849ZM36.55 31.15H6.45V35.15H36.55V31.15ZM6.45 31.15C5.24882 31.15 4.10962 30.6878 3.27978 29.8849L0.498541 32.7598C2.08792 34.2974 4.22989 35.15 6.45 35.15V31.15ZM3.27978 29.8849C2.45219 29.0843 2 28.0128 2 26.91H-2C-2 29.1172 -1.09309 31.22 0.498541 32.7598L3.27978 29.8849ZM2 26.91V8.19001H-2V26.91H2ZM2 8.19001C2 7.08726 2.45219 6.01573 3.27978 5.21509L0.498541 2.34025C-1.09309 3.88006 -2 5.98287 -2 8.19001H2ZM3.27978 5.21509C4.10962 4.41227 5.24882 3.95001 6.45 3.95001V-0.0499878C4.22989 -0.0499878 2.08792 0.802613 0.498541 2.34025L3.27978 5.21509Z" fill="#6160DC" mask="url(#path-3-inside-1_312_831)"/>
<defs>
<clipPath id="clip0_312_831">
<rect width="39.0909" height="39" fill="white" transform="translate(1.9541)"/>
</clipPath>
</defs>
</svg>
