<svg width="40" height="50" viewBox="0 0 40 50" fill="none" xmlns="http://www.w3.org/2000/svg">
<path fill-rule="evenodd" clip-rule="evenodd" d="M7.5 18.75C7.5 18.0596 8.05964 17.5 8.75 17.5H31.25C31.9404 17.5 32.5 18.0596 32.5 18.75C32.5 19.4404 31.9404 20 31.25 20H8.75C8.05964 20 7.5 19.4404 7.5 18.75Z" fill="#8E8EA1"/>
<path fill-rule="evenodd" clip-rule="evenodd" d="M7.5 26.25C7.5 25.5596 8.05964 25 8.75 25H31.25C31.9404 25 32.5 25.5596 32.5 26.25C32.5 26.9404 31.9404 27.5 31.25 27.5H8.75C8.05964 27.5 7.5 26.9404 7.5 26.25Z" fill="#8E8EA1"/>
<path fill-rule="evenodd" clip-rule="evenodd" d="M7.5 11.25C7.5 10.5596 8.05964 10 8.75 10H21.25C21.9404 10 22.5 10.5596 22.5 11.25C22.5 11.9404 21.9404 12.5 21.25 12.5H8.75C8.05964 12.5 7.5 11.9404 7.5 11.25Z" fill="#8E8EA1"/>
<path fill-rule="evenodd" clip-rule="evenodd" d="M7.5 33.75C7.5 33.0596 8.05964 32.5 8.75 32.5H31.25C31.9404 32.5 32.5 33.0596 32.5 33.75C32.5 34.4404 31.9404 35 31.25 35H8.75C8.05964 35 7.5 34.4404 7.5 33.75Z" fill="#8E8EA1"/>
<path fill-rule="evenodd" clip-rule="evenodd" d="M7.5 41.25C7.5 40.5596 8.05964 40 8.75 40H31.25C31.9404 40 32.5 40.5596 32.5 41.25C32.5 41.9404 31.9404 42.5 31.25 42.5H8.75C8.05964 42.5 7.5 41.9404 7.5 41.25Z" fill="#8E8EA1"/>
<path fill-rule="evenodd" clip-rule="evenodd" d="M28.75 1.25C29.4404 1.25 30 1.80964 30 2.5V9.25C30 9.65964 30.3404 10 30.75 10H37.5C38.1904 10 38.75 10.5596 38.75 11.25C38.75 11.9404 38.1904 12.5 37.5 12.5H30.75C28.9596 12.5 27.5 11.0404 27.5 9.25V2.5C27.5 1.80964 28.0596 1.25 28.75 1.25Z" fill="#8E8EA1"/>
<path fill-rule="evenodd" clip-rule="evenodd" d="M3.45 2.5C2.86314 2.5 2.5 2.94012 2.5 3.325V46.675C2.5 47.0599 2.86314 47.5 3.45 47.5H36.525C37.1119 47.5 37.475 47.0599 37.475 46.675V12.275C37.475 11.9191 37.3481 11.6158 37.1161 11.3839L28.6048 2.87255C28.3432 2.62927 28.0234 2.5 27.7 2.5H3.45ZM0 3.325C0 1.40988 1.63686 0 3.45 0H27.7C28.7223 0 29.6482 0.417224 30.3347 1.06756L30.3592 1.09079L30.3589 1.09112L38.8839 9.61612C39.6019 10.3342 39.975 11.2809 39.975 12.275V46.675C39.975 48.5901 38.3381 50 36.525 50H3.45C1.63686 50 0 48.5901 0 46.675V3.325Z" fill="#8E8EA1"/>
</svg>
