<svg width="50" height="50" viewBox="0 0 50 50" fill="none" xmlns="http://www.w3.org/2000/svg">
<path d="M46.6827 13.2325L29.1827 1.30003C27.9523 0.453245 26.4938 -0.00012207 25.0002 -0.00012207C23.5065 -0.00012207 22.0481 0.453245 20.8177 1.30003L3.31767 13.2325C2.29151 13.9358 1.45282 14.8793 0.874609 15.9808C0.296403 17.0823 -0.00378921 18.3085 0.000167307 19.5525V42.385C-0.0131504 44.3888 0.769086 46.316 2.17519 47.7437C3.5813 49.1714 5.4964 49.9828 7.50017 50H42.5002C44.5039 49.9828 46.419 49.1714 47.8251 47.7437C49.2312 46.316 50.0135 44.3888 50.0002 42.385V19.5525C50.0041 18.3085 49.7039 17.0823 49.1257 15.9808C48.5475 14.8793 47.7088 13.9358 46.6827 13.2325ZM20.0002 45V32.5H30.0002V45H20.0002ZM45.0002 42.385C45.0143 43.063 44.759 43.7189 44.2905 44.209C43.8219 44.6992 43.1781 44.9836 42.5002 45H35.0002V30C35.0002 29.337 34.7368 28.7011 34.2679 28.2323C33.7991 27.7634 33.1632 27.5 32.5002 27.5H17.5002C16.8371 27.5 16.2012 27.7634 15.7324 28.2323C15.2636 28.7011 15.0002 29.337 15.0002 30V45H7.50017C6.82226 44.9836 6.17848 44.6992 5.70988 44.209C5.24129 43.7189 4.98608 43.063 5.00017 42.385V19.5525C4.99676 19.1227 5.09837 18.6985 5.29617 18.3168C5.49397 17.9352 5.78198 17.6076 6.13517 17.3625L23.6352 5.43003C24.0366 5.15331 24.5126 5.00513 25.0002 5.00513C25.4877 5.00513 25.9637 5.15331 26.3652 5.43003L43.8652 17.3625C44.2184 17.6076 44.5064 17.9352 44.7042 18.3168C44.902 18.6985 45.0036 19.1227 45.0002 19.5525V42.385Z" fill="#8E8EA1"/>
</svg>
