<svg width="32" height="32" viewBox="0 0 32 32" fill="none" xmlns="http://www.w3.org/2000/svg">
<path d="M31.06 21.9599L24.08 14.9799C23.5 14.3999 22.54 14.3999 21.96 14.9799C21.38 15.5599 21.38 16.5199 21.96 17.0999L26.38 21.5199H2C1.18 21.5199 0.5 22.1999 0.5 23.0199C0.5 23.8399 1.18 24.5199 2 24.5199H26.38L21.96 28.9399C21.38 29.5199 21.38 30.4799 21.96 31.0599C22.26 31.3599 22.64 31.4999 23.02 31.4999C23.4 31.4999 23.78 31.3599 24.08 31.0599L31.06 24.0799C31.2 23.9399 31.3 23.7799 31.38 23.5999C31.54 23.2399 31.54 22.8199 31.38 22.4599C31.3 22.2599 31.2 22.0999 31.06 21.9599ZM30 7.47994H5.62L10.04 3.05994C10.62 2.47994 10.62 1.51994 10.04 0.939944C9.46 0.359944 8.5 0.359944 7.92 0.939944L0.94 7.91994C0.8 8.05994 0.7 8.21994 0.62 8.41994C0.46 8.77994 0.46 9.19994 0.62 9.55994C0.7 9.73994 0.8 9.89994 0.94 10.0399L7.92 17.0199C8.22 17.3199 8.6 17.4799 8.98 17.4799C9.36 17.4799 9.74 17.3399 10.04 17.0399C10.62 16.4599 10.62 15.4999 10.04 14.9199L5.62 10.4799H30C30.82 10.4799 31.5 9.79994 31.5 8.97994C31.5 8.15994 30.82 7.47994 30 7.47994Z" fill="#8E8EA1"/>
</svg>
