<svg width="56" height="56" viewBox="0 0 56 56" fill="none" xmlns="http://www.w3.org/2000/svg">
<path fill-rule="evenodd" clip-rule="evenodd" d="M41.3836 8.88388L8.88364 41.3839L7.11587 39.6161L39.6159 7.11612L41.3836 8.88388Z" fill="#6160DC"/>
<path fill-rule="evenodd" clip-rule="evenodd" d="M32.9407 3.33389C32.5039 2.89704 31.7703 2.89704 31.3335 3.33389L3.33349 31.3339C2.89665 31.7707 2.89665 32.5043 3.33349 32.9411L23.0585 52.6661C23.4953 53.103 24.2289 53.103 24.6657 52.6661L52.6657 24.6661C53.0947 24.2372 53.1127 23.5233 52.6588 23.052L32.9407 3.33389ZM29.5657 1.56612C30.9789 0.152967 33.2953 0.152967 34.7085 1.56612L54.4453 21.3029C55.8364 22.7317 55.853 25.0143 54.4335 26.4339L26.4335 54.4339C25.0203 55.847 22.7039 55.847 21.2907 54.4339L1.56573 34.7089C0.152571 33.2957 0.152571 30.9793 1.56573 29.5661L29.5657 1.56612Z" fill="#6160DC"/>
</svg>
